<?xml version="1.0" encoding="UTF-8" standalone="no"?>
<!-- Created with Inkscape (http://www.inkscape.org/) -->

<svg
   xmlns:dc="http://purl.org/dc/elements/1.1/"
   xmlns:cc="http://creativecommons.org/ns#"
   xmlns:rdf="http://www.w3.org/1999/02/22-rdf-syntax-ns#"
   xmlns:svg="http://www.w3.org/2000/svg"
   xmlns="http://www.w3.org/2000/svg"
   xmlns:sodipodi="http://sodipodi.sourceforge.net/DTD/sodipodi-0.dtd"
   xmlns:inkscape="http://www.inkscape.org/namespaces/inkscape"
   id="svg2"
   version="1.1"
   inkscape:version="0.48.4 r9939"
   width="1438.75"
   height="822.5"
   xml:space="preserve"
   sodipodi:docname="azimuth.pdf"><metadata
     id="metadata8"><rdf:RDF><cc:Work
         rdf:about=""><dc:format>image/svg+xml</dc:format><dc:type
           rdf:resource="http://purl.org/dc/dcmitype/StillImage" /><dc:title></dc:title></cc:Work></rdf:RDF></metadata><defs
     id="defs6"><clipPath
       clipPathUnits="userSpaceOnUse"
       id="clipPath18"><path
         d="m 0,9 11510,0 0,6562 L 0,6571 0,9 z"
         id="path20" /></clipPath><clipPath
       clipPathUnits="userSpaceOnUse"
       id="clipPath196"><path
         d="m 1497,731 8929,0 0,5350 -8929,0 0,-5350 z"
         id="path198" /></clipPath><clipPath
       clipPathUnits="userSpaceOnUse"
       id="clipPath206"><path
         d="m 0,9 11510,0 0,6562 L 0,6571 0,9 z"
         id="path208" /></clipPath><clipPath
       clipPathUnits="userSpaceOnUse"
       id="clipPath220"><path
         d="m 0,9.98047 11510,0 0,6561.02003 -11510,0 L 0,9.98047 z"
         id="path222" /></clipPath><clipPath
       clipPathUnits="userSpaceOnUse"
       id="clipPath3227"><rect
         style="fill:#000000;fill-opacity:1;stroke:#ff0000;stroke-width:18.95583916;stroke-linecap:butt;stroke-miterlimit:4;stroke-opacity:1;stroke-dasharray:37.9116775, 18.9558387;stroke-dashoffset:0"
         id="rect3229"
         width="9403.3496"
         height="5640.6426"
         x="1241.7328"
         y="-6243.1929"
         transform="scale(1,-1)" /></clipPath></defs><sodipodi:namedview
     pagecolor="#ffffff"
     bordercolor="#666666"
     borderopacity="1"
     objecttolerance="10"
     gridtolerance="10"
     guidetolerance="10"
     inkscape:pageopacity="0"
     inkscape:pageshadow="2"
     inkscape:window-width="1366"
     inkscape:window-height="713"
     id="namedview4"
     showgrid="false"
     inkscape:zoom="0.46707211"
     inkscape:cx="705.76511"
     inkscape:cy="556.07021"
     inkscape:window-x="0"
     inkscape:window-y="30"
     inkscape:window-maximized="1"
     inkscape:current-layer="g218" /><g
     id="g10"
     inkscape:groupmode="layer"
     inkscape:label="ink_ext_XXXXXX"
     transform="matrix(1.25,0,0,-1.25,0,822.5)"><g
       id="g12"
       transform="scale(0.1,0.1)"
       clip-path="url(#clipPath3227)"><g
         id="g14"><g
           id="g16"
           clip-path="url(#clipPath18)"><path
             d="m 0,9.98047 11510,0 0,6561.02003 -11510,0 L 0,9.98047 z"
             style="fill:#ffffff;fill-opacity:1;fill-rule:nonzero;stroke:none"
             id="path22" /><path
             d="m 1497.5,732.68 8927.5,0 0,5347.5 -8927.5,0 0,-5347.5 z"
             style="fill:#ffffff;fill-opacity:1;fill-rule:evenodd;stroke:none"
             id="path24" /><path
             d="m 1497.5,732.68 8927.5,0 0,5347.5 -8927.5,0 0,-5347.5 z"
             style="fill:none;stroke:#ffffff;stroke-opacity:1;stroke-width:5;stroke-linecap:butt;stroke-linejoin:round;stroke-miterlimit:10;stroke-dasharray:none"
             id="path26" /><path
             d="m 2135,732.68 0,5347.5"
             style="fill:none;stroke:#000000;stroke-opacity:1;stroke-width:3.33333;stroke-linecap:butt;stroke-linejoin:round;stroke-miterlimit:10;stroke-dasharray:5,40;stroke-dashoffset:0"
             id="path28" /><path
             d="m 3410,732.68 0,5347.5"
             style="fill:none;stroke:#000000;stroke-opacity:1;stroke-width:3.33333;stroke-linecap:butt;stroke-linejoin:round;stroke-miterlimit:10;stroke-dasharray:5,40;stroke-dashoffset:0"
             id="path30" /><path
             d="m 4685.82,732.68 0,5347.5"
             style="fill:none;stroke:#000000;stroke-opacity:1;stroke-width:3.33333;stroke-linecap:butt;stroke-linejoin:round;stroke-miterlimit:10;stroke-dasharray:5,40;stroke-dashoffset:0"
             id="path32" /><path
             d="m 5960.82,732.68 0,5347.5"
             style="fill:none;stroke:#000000;stroke-opacity:1;stroke-width:3.33333;stroke-linecap:butt;stroke-linejoin:round;stroke-miterlimit:10;stroke-dasharray:5,40;stroke-dashoffset:0"
             id="path34" /><path
             d="m 7235.82,732.68 0,5347.5"
             style="fill:none;stroke:#000000;stroke-opacity:1;stroke-width:3.33333;stroke-linecap:butt;stroke-linejoin:round;stroke-miterlimit:10;stroke-dasharray:5,40;stroke-dashoffset:0"
             id="path36" /><path
             d="m 8511.68,732.68 0,5347.5"
             style="fill:none;stroke:#000000;stroke-opacity:1;stroke-width:3.33333;stroke-linecap:butt;stroke-linejoin:round;stroke-miterlimit:10;stroke-dasharray:5,40;stroke-dashoffset:0"
             id="path38" /><path
             d="m 9786.68,732.68 0,5347.5"
             style="fill:none;stroke:#000000;stroke-opacity:1;stroke-width:3.33333;stroke-linecap:butt;stroke-linejoin:round;stroke-miterlimit:10;stroke-dasharray:5,40;stroke-dashoffset:0"
             id="path40" /><path
             d="m 1497.5,1756.82 8927.5,0"
             style="fill:none;stroke:#000000;stroke-opacity:1;stroke-width:3.33333;stroke-linecap:butt;stroke-linejoin:round;stroke-miterlimit:10;stroke-dasharray:5,40;stroke-dashoffset:0"
             id="path42" /><path
             d="m 1497.5,2853.5 8927.5,0"
             style="fill:none;stroke:#000000;stroke-opacity:1;stroke-width:3.33333;stroke-linecap:butt;stroke-linejoin:round;stroke-miterlimit:10;stroke-dasharray:5,40;stroke-dashoffset:0"
             id="path44" /><path
             d="m 1497.5,3951 8927.5,0"
             style="fill:none;stroke:#000000;stroke-opacity:1;stroke-width:3.33333;stroke-linecap:butt;stroke-linejoin:round;stroke-miterlimit:10;stroke-dasharray:5,40;stroke-dashoffset:0"
             id="path46" /><path
             d="m 1497.5,5048.5 8927.5,0"
             style="fill:none;stroke:#000000;stroke-opacity:1;stroke-width:3.33333;stroke-linecap:butt;stroke-linejoin:round;stroke-miterlimit:10;stroke-dasharray:5,40;stroke-dashoffset:0"
             id="path48" /><path
             d="m 1497.5,732.68 8927.5,0"
             style="fill:none;stroke:#000000;stroke-opacity:1;stroke-width:5;stroke-linecap:butt;stroke-linejoin:round;stroke-miterlimit:10;stroke-dasharray:none"
             id="path50" /><path
             d="m 1497.5,6080.18 8927.5,0"
             style="fill:none;stroke:#000000;stroke-opacity:1;stroke-width:5;stroke-linecap:butt;stroke-linejoin:round;stroke-miterlimit:10;stroke-dasharray:none"
             id="path52" /><path
             d="m 1497.5,732.68 0,5347.5"
             style="fill:none;stroke:#000000;stroke-opacity:1;stroke-width:5;stroke-linecap:butt;stroke-linejoin:round;stroke-miterlimit:10;stroke-dasharray:none"
             id="path54" /><path
             d="m 10425,732.68 0,5347.5"
             style="fill:none;stroke:#000000;stroke-opacity:1;stroke-width:5;stroke-linecap:butt;stroke-linejoin:round;stroke-miterlimit:10;stroke-dasharray:none"
             id="path56" /><path
             d="m 1497.5,732.68 8927.5,0"
             style="fill:none;stroke:#000000;stroke-opacity:1;stroke-width:5;stroke-linecap:butt;stroke-linejoin:round;stroke-miterlimit:10;stroke-dasharray:none"
             id="path58" /><path
             d="m 1497.5,732.68 0,5347.5"
             style="fill:none;stroke:#000000;stroke-opacity:1;stroke-width:5;stroke-linecap:butt;stroke-linejoin:round;stroke-miterlimit:10;stroke-dasharray:none"
             id="path60" /><path
             d="m 2135,732.68 0,89.14"
             style="fill:none;stroke:#000000;stroke-opacity:1;stroke-width:5;stroke-linecap:butt;stroke-linejoin:round;stroke-miterlimit:10;stroke-dasharray:none"
             id="path62" /><path
             d="m 2135,6080.18 0,-90"
             style="fill:none;stroke:#000000;stroke-opacity:1;stroke-width:5;stroke-linecap:butt;stroke-linejoin:round;stroke-miterlimit:10;stroke-dasharray:none"
             id="path64" /><g
             id="g66"
             transform="scale(10,10)"><text
               transform="matrix(1,0,0,-1,204.917,61.1)"
               id="text68"><tspan
                 style="fill:#000000;fill-opacity:1;fill-rule:nonzero;stroke:none;font-family:f-0;font-variant:normal;font-size:10;writing-mode:lr;-inkscape-font-specification:f-0-1"
                 x="0"
                 y="0"
                 id="tspan70">−</tspan></text>
<text
               transform="matrix(1,0,0,-1,210.75684,61.1)"
               id="text72"><tspan
                 style="fill:#000000;fill-opacity:1;fill-rule:nonzero;stroke:none;font-family:f-0;font-variant:normal;font-size:10;writing-mode:lr;-inkscape-font-specification:f-0-0"
                 x="0"
                 y="0"
                 id="tspan74">3</tspan></text>
</g><path
             d="m 3410,732.68 0,89.14"
             style="fill:none;stroke:#000000;stroke-opacity:1;stroke-width:5;stroke-linecap:butt;stroke-linejoin:round;stroke-miterlimit:10;stroke-dasharray:none"
             id="path76" /><path
             d="m 3410,6080.18 0,-90"
             style="fill:none;stroke:#000000;stroke-opacity:1;stroke-width:5;stroke-linecap:butt;stroke-linejoin:round;stroke-miterlimit:10;stroke-dasharray:none"
             id="path78" /><g
             id="g80"
             transform="scale(10,10)"><text
               transform="matrix(1,0,0,-1,332.417,61.1)"
               id="text82"><tspan
                 style="fill:#000000;fill-opacity:1;fill-rule:nonzero;stroke:none;font-family:f-0;font-variant:normal;font-size:10;writing-mode:lr;-inkscape-font-specification:f-0-1"
                 x="0"
                 y="0"
                 id="tspan84">−</tspan></text>
<text
               transform="matrix(1,0,0,-1,338.25684,61.1)"
               id="text86"><tspan
                 style="fill:#000000;fill-opacity:1;fill-rule:nonzero;stroke:none;font-family:f-0;font-variant:normal;font-size:10;writing-mode:lr;-inkscape-font-specification:f-0-0"
                 x="0"
                 y="0"
                 id="tspan88">2</tspan></text>
</g><path
             d="m 4685.82,732.68 0,89.14"
             style="fill:none;stroke:#000000;stroke-opacity:1;stroke-width:5;stroke-linecap:butt;stroke-linejoin:round;stroke-miterlimit:10;stroke-dasharray:none"
             id="path90" /><path
             d="m 4685.82,6080.18 0,-90"
             style="fill:none;stroke:#000000;stroke-opacity:1;stroke-width:5;stroke-linecap:butt;stroke-linejoin:round;stroke-miterlimit:10;stroke-dasharray:none"
             id="path92" /><g
             id="g94"
             transform="scale(10,10)"><text
               transform="matrix(1,0,0,-1,460,61.1)"
               id="text96"><tspan
                 style="fill:#000000;fill-opacity:1;fill-rule:nonzero;stroke:none;font-family:f-0;font-variant:normal;font-size:10;writing-mode:lr;-inkscape-font-specification:f-0-1"
                 x="0"
                 y="0"
                 id="tspan98">−</tspan></text>
<text
               transform="matrix(1,0,0,-1,465.83984,61.1)"
               id="text100"><tspan
                 style="fill:#000000;fill-opacity:1;fill-rule:nonzero;stroke:none;font-family:f-0;font-variant:normal;font-size:10;writing-mode:lr;-inkscape-font-specification:f-0-0"
                 x="0"
                 y="0"
                 id="tspan102">1</tspan></text>
</g><path
             d="m 5960.82,732.68 0,89.14"
             style="fill:none;stroke:#000000;stroke-opacity:1;stroke-width:5;stroke-linecap:butt;stroke-linejoin:round;stroke-miterlimit:10;stroke-dasharray:none"
             id="path104" /><path
             d="m 5960.82,6080.18 0,-90"
             style="fill:none;stroke:#000000;stroke-opacity:1;stroke-width:5;stroke-linecap:butt;stroke-linejoin:round;stroke-miterlimit:10;stroke-dasharray:none"
             id="path106" /><g
             id="g108"
             transform="scale(10,10)"><text
               transform="matrix(1,0,0,-1,593.333,61.1)"
               id="text110"><tspan
                 style="fill:#000000;fill-opacity:1;fill-rule:nonzero;stroke:none;font-family:f-0;font-variant:normal;font-size:10;writing-mode:lr;-inkscape-font-specification:f-0-0"
                 x="0"
                 y="0"
                 id="tspan112">0</tspan></text>
</g><path
             d="m 7235.82,732.68 0,89.14"
             style="fill:none;stroke:#000000;stroke-opacity:1;stroke-width:5;stroke-linecap:butt;stroke-linejoin:round;stroke-miterlimit:10;stroke-dasharray:none"
             id="path114" /><path
             d="m 7235.82,6080.18 0,-90"
             style="fill:none;stroke:#000000;stroke-opacity:1;stroke-width:5;stroke-linecap:butt;stroke-linejoin:round;stroke-miterlimit:10;stroke-dasharray:none"
             id="path116" /><g
             id="g118"
             transform="scale(10,10)"><text
               transform="matrix(1,0,0,-1,720.833,61.1)"
               id="text120"><tspan
                 style="fill:#000000;fill-opacity:1;fill-rule:nonzero;stroke:none;font-family:f-0;font-variant:normal;font-size:10;writing-mode:lr;-inkscape-font-specification:f-0-0"
                 x="0"
                 y="0"
                 id="tspan122">1</tspan></text>
</g><path
             d="m 8511.68,732.68 0,89.14"
             style="fill:none;stroke:#000000;stroke-opacity:1;stroke-width:5;stroke-linecap:butt;stroke-linejoin:round;stroke-miterlimit:10;stroke-dasharray:none"
             id="path124" /><path
             d="m 8511.68,6080.18 0,-90"
             style="fill:none;stroke:#000000;stroke-opacity:1;stroke-width:5;stroke-linecap:butt;stroke-linejoin:round;stroke-miterlimit:10;stroke-dasharray:none"
             id="path126" /><g
             id="g128"
             transform="scale(10,10)"><text
               transform="matrix(1,0,0,-1,848.417,61.1)"
               id="text130"><tspan
                 style="fill:#000000;fill-opacity:1;fill-rule:nonzero;stroke:none;font-family:f-0;font-variant:normal;font-size:10;writing-mode:lr;-inkscape-font-specification:f-0-0"
                 x="0"
                 y="0"
                 id="tspan132">2</tspan></text>
</g><path
             d="m 9786.68,732.68 0,89.14"
             style="fill:none;stroke:#000000;stroke-opacity:1;stroke-width:5;stroke-linecap:butt;stroke-linejoin:round;stroke-miterlimit:10;stroke-dasharray:none"
             id="path134" /><path
             d="m 9786.68,6080.18 0,-90"
             style="fill:none;stroke:#000000;stroke-opacity:1;stroke-width:5;stroke-linecap:butt;stroke-linejoin:round;stroke-miterlimit:10;stroke-dasharray:none"
             id="path136" /><g
             id="g138"
             transform="scale(10,10)"><text
               transform="matrix(1,0,0,-1,975.917,61.1)"
               id="text140"><tspan
                 style="fill:#000000;fill-opacity:1;fill-rule:nonzero;stroke:none;font-family:f-0;font-variant:normal;font-size:10;writing-mode:lr;-inkscape-font-specification:f-0-0"
                 x="0"
                 y="0"
                 id="tspan142">3</tspan></text>
</g><path
             d="m 1497.5,1756.82 89.18,0"
             style="fill:none;stroke:#000000;stroke-opacity:1;stroke-width:5;stroke-linecap:butt;stroke-linejoin:round;stroke-miterlimit:10;stroke-dasharray:none"
             id="path144" /><path
             d="m 10425,1756.82 -90,0"
             style="fill:none;stroke:#000000;stroke-opacity:1;stroke-width:5;stroke-linecap:butt;stroke-linejoin:round;stroke-miterlimit:10;stroke-dasharray:none"
             id="path146" /><g
             id="g148"
             transform="scale(10,10)"><text
               transform="matrix(1,0,0,-1,135.75,172.017)"
               id="text150"><tspan
                 style="fill:#000000;fill-opacity:1;fill-rule:nonzero;stroke:none;font-family:f-0;font-variant:normal;font-size:10;writing-mode:lr;-inkscape-font-specification:f-0-0"
                 x="0 5.56"
                 y="0"
                 sodipodi:role="line"
                 id="tspan152">90</tspan></text>
</g><path
             d="m 1497.5,2853.5 89.18,0"
             style="fill:none;stroke:#000000;stroke-opacity:1;stroke-width:5;stroke-linecap:butt;stroke-linejoin:round;stroke-miterlimit:10;stroke-dasharray:none"
             id="path154" /><path
             d="m 10425,2853.5 -90,0"
             style="fill:none;stroke:#000000;stroke-opacity:1;stroke-width:5;stroke-linecap:butt;stroke-linejoin:round;stroke-miterlimit:10;stroke-dasharray:none"
             id="path156" /><g
             id="g158"
             transform="scale(10,10)"><text
               transform="matrix(1,0,0,-1,135.75,281.683)"
               id="text160"><tspan
                 style="fill:#000000;fill-opacity:1;fill-rule:nonzero;stroke:none;font-family:f-0;font-variant:normal;font-size:10;writing-mode:lr;-inkscape-font-specification:f-0-0"
                 x="0 5.56"
                 y="0"
                 sodipodi:role="line"
                 id="tspan162">95</tspan></text>
</g><path
             d="m 1497.5,3951 89.18,0"
             style="fill:none;stroke:#000000;stroke-opacity:1;stroke-width:5;stroke-linecap:butt;stroke-linejoin:round;stroke-miterlimit:10;stroke-dasharray:none"
             id="path164" /><path
             d="m 10425,3951 -90,0"
             style="fill:none;stroke:#000000;stroke-opacity:1;stroke-width:5;stroke-linecap:butt;stroke-linejoin:round;stroke-miterlimit:10;stroke-dasharray:none"
             id="path166" /><g
             id="g168"
             transform="scale(10,10)"><text
               transform="matrix(1,0,0,-1,130.167,391.433)"
               id="text170"><tspan
                 style="fill:#000000;fill-opacity:1;fill-rule:nonzero;stroke:none;font-family:f-0;font-variant:normal;font-size:10;writing-mode:lr;-inkscape-font-specification:f-0-0"
                 x="0 5.56 11.12"
                 y="0"
                 sodipodi:role="line"
                 id="tspan172">100</tspan></text>
</g><path
             d="m 1497.5,5048.5 89.18,0"
             style="fill:none;stroke:#000000;stroke-opacity:1;stroke-width:5;stroke-linecap:butt;stroke-linejoin:round;stroke-miterlimit:10;stroke-dasharray:none"
             id="path174" /><path
             d="m 10425,5048.5 -90,0"
             style="fill:none;stroke:#000000;stroke-opacity:1;stroke-width:5;stroke-linecap:butt;stroke-linejoin:round;stroke-miterlimit:10;stroke-dasharray:none"
             id="path176" /><g
             id="g178"
             transform="scale(10,10)"><text
               transform="matrix(1,0,0,-1,130.167,501.184)"
               id="text180"><tspan
                 style="fill:#000000;fill-opacity:1;fill-rule:nonzero;stroke:none;font-family:f-0;font-variant:normal;font-size:10;writing-mode:lr;-inkscape-font-specification:f-0-0"
                 x="0 5.56 11.12"
                 y="0"
                 sodipodi:role="line"
                 id="tspan182">105</tspan></text>
</g><path
             d="m 1497.5,732.68 8927.5,0"
             style="fill:none;stroke:#000000;stroke-opacity:1;stroke-width:5;stroke-linecap:butt;stroke-linejoin:round;stroke-miterlimit:10;stroke-dasharray:none"
             id="path184" /><path
             d="m 1497.5,6080.18 8927.5,0"
             style="fill:none;stroke:#000000;stroke-opacity:1;stroke-width:5;stroke-linecap:butt;stroke-linejoin:round;stroke-miterlimit:10;stroke-dasharray:none"
             id="path186" /><path
             d="m 1497.5,732.68 0,5347.5"
             style="fill:none;stroke:#000000;stroke-opacity:1;stroke-width:5;stroke-linecap:butt;stroke-linejoin:round;stroke-miterlimit:10;stroke-dasharray:none"
             id="path188" /><path
             d="m 10425,732.68 0,5347.5"
             style="fill:none;stroke:#000000;stroke-opacity:1;stroke-width:5;stroke-linecap:butt;stroke-linejoin:round;stroke-miterlimit:10;stroke-dasharray:none"
             id="path190" /></g></g><g
         id="g192"><g
           id="g194"
           clip-path="url(#clipPath196)"><path
             d="m 1497.5,2560.18 79.18,-170.86 80,-165 79.14,-122.5 80,-76.64 80,-54.18 79.18,-48.32 80,-76.68 80,-99.18 79.18,-26.64 80,75.82 80,-3.32 79.14,-179.18 80,-157.5 80,39.18 79.18,129.14 80,55.86 80,-47.5 79.18,-134.18 80,-169.18 80,-110.82 79.14,-56.68 80,-111.64 79.18,-185.86 80,-131.64 80,43.32 79.18,155.82 80,82.5 80,-50.82 79.14,-33.32 80,75.82 80,144.18 79.18,181.64 80,158.36 80,-50 79.18,-244.18 80,-126.68 80,78.36 79.14,45 80,-90.86 80,-85.82 79.18,92.5 160,610 79.18,48.32 80,-94.14 79.14,30.82 80,173.32 80,178.36 79.18,104.14 80,-57.5 80,48.36 79.18,670.82 80,1070 80,895.82 79.14,724.18 80,569.18 80,-267.5 79.18,-1000.86 80,-781.64 80,-400 79.18,-609.18 80,-537.5 80,179.18 79.14,598.32 80,565 80,604.18 79.18,532.5 80,-72.5 79.18,-583.36 80,-483.32 80,-222.5 79.14,-311.68 80,-385.82 80,-155.82 79.18,0.82 80,-185.82 80,-214.18 79.18,57.5 80,68.32 80,-270.82 79.14,-325.82 80,-43.36 80,23.36 79.18,-122.5 80,-119.18 80,-89.18 79.18,-155 80,-86.64 80,85.82 79.14,92.5 80,10 79.18,27.5 80,70 80,30 79.18,-33.32 80,-118.36 80,-192.5 79.14,-175 80,-76.64 80,9.14 79.18,51.68 80,30 80,-39.18 79.18,-20 80,85 80,87.5 79.12,-25.82 80,-55 80,34.18 79.2,92.5 80,105.82 80,122.5"
             style="fill:none;stroke:#0000ff;stroke-opacity:1;stroke-width:20;stroke-linecap:butt;stroke-linejoin:round;stroke-miterlimit:10;stroke-dasharray:none"
             id="path200" /></g></g><g
         id="g202"><g
           id="g204"
           clip-path="url(#clipPath206)"><g
             id="g210"
             transform="scale(10,10)"><text
               transform="matrix(1,0,0,-1,572,47.6832)"
               id="text212"><tspan
                 style="fill:#000000;fill-opacity:1;fill-rule:nonzero;stroke:none;font-family:f-1;font-variant:normal;font-size:12;writing-mode:lr;-inkscape-font-specification:f-1-0"
                 x="0 3.336 10.668 19.332 22.668 26.664 37.332 44.004"
                 y="0"
                 sodipodi:role="line"
                 id="tspan214">ITD (ms)</tspan></text>
</g></g></g><g
         id="g216"><g
           id="g218"
           clip-path="url(#clipPath220)"><path
             d="m 5959.92,5990.06 c 9.65,-119.92 0,-5236.169 0,-5236.169"
             style="fill:none;stroke:#ff0000;stroke-opacity:1;stroke-width:16.0394;stroke-linecap:butt;stroke-linejoin:miter;stroke-miterlimit:4;stroke-dasharray:32.0789,16.0394;stroke-dashoffset:0"
             id="path224" /><path
             d="m 6837.93,4940.45 c 11.05,-96.44 0,-4210.43 0,-4210.43"
             style="fill:none;stroke:#ff0000;stroke-opacity:1;stroke-width:15.4077;stroke-linecap:butt;stroke-linejoin:miter;stroke-miterlimit:4;stroke-dasharray:30.8154,15.4077;stroke-dashoffset:0"
             id="path226" /><text
             xml:space="preserve"
             style="font-size:160px;font-style:normal;font-variant:normal;font-weight:bold;font-stretch:normal;line-height:125%;letter-spacing:0px;word-spacing:0px;fill:#000000;fill-opacity:1;stroke:none;font-family:Ubuntu Mono;-inkscape-font-specification:Sans Bold"
             x="6679.9111"
             y="-5027.061"
             id="text3235"
             sodipodi:linespacing="125%"
             transform="scale(1,-1)"><tspan
               sodipodi:role="line"
               id="tspan3237"
               x="6679.9111"
               y="-5027.061"
               style="font-size:256px">0.6875 ms</tspan></text>
<text
             xml:space="preserve"
             style="font-size:160px;font-style:normal;font-variant:normal;font-weight:bold;font-stretch:normal;line-height:125%;letter-spacing:0px;word-spacing:0px;fill:#000000;fill-opacity:1;stroke:none;font-family:Ubuntu Mono;-inkscape-font-specification:Sans Bold"
             x="6088.1631"
             y="-5842.9414"
             id="text3235-2"
             sodipodi:linespacing="125%"
             transform="scale(1,-1)"><tspan
               sodipodi:role="line"
               id="tspan3237-4"
               x="6088.1631"
               y="-5842.9414"
               style="font-size:256px">0 ms</tspan></text>
</g></g></g><text
       xml:space="preserve"
       style="font-size:16px;font-style:normal;font-variant:normal;font-weight:bold;font-stretch:normal;line-height:125%;letter-spacing:0px;word-spacing:0px;fill:#000000;fill-opacity:1;stroke:none;font-family:Ubuntu Mono;-inkscape-font-specification:Sans Bold"
       x="412.99561"
       y="-30.27825"
       id="text3231"
       sodipodi:linespacing="125%"
       transform="scale(1,-1)"><tspan
         sodipodi:role="line"
         id="tspan3233"
         x="412.99561"
         y="-30.27825"
         style="font-size:25.60000038px">Interaural Time Difference (ms)</tspan></text>
</g></svg>